<svg width="23" height="27" fill="none" xmlns="http://www.w3.org/2000/svg"><rect x=".38" width="22.62" height="27" rx="4" fill="#313131"/><path fill-rule="evenodd" clip-rule="evenodd" d="M13.865 10.8c0 1.243-.974 2.25-2.175 2.25-1.201 0-2.175-1.007-2.175-2.25 0-1.242.974-2.25 2.175-2.25 1.201 0 2.175 1.008 2.175 2.25Zm1.305 0c0 1.988-1.558 3.6-3.48 3.6s-3.48-1.612-3.48-3.6 1.558-3.6 3.48-3.6 3.48 1.612 3.48 3.6Zm-5.22 4.725c-1.802 0-3.262 1.511-3.262 3.375v.9h1.304v-.9c0-1.118.877-2.025 1.958-2.025h3.48c1.081 0 1.957.907 1.957 2.025v.9h1.305v-.9c0-1.864-1.46-3.375-3.262-3.375H9.95Z" fill="#fff"/></svg>