<svg width="72" height="21" fill="none" xmlns="http://www.w3.org/2000/svg"><rect width="72" height="21" rx="10.5" fill="#313131"/><path d="M16.541 9c-.27-1.491-1.463-2.372-2.926-2.372-1.86 0-3.21 1.434-3.21 3.736 0 2.3 1.35 3.735 3.21 3.735 1.463 0 2.657-.88 2.926-2.372h-.88c-.213 1.009-1.08 1.549-2.046 1.549-1.32 0-2.357-1.023-2.357-2.912 0-1.89 1.036-2.912 2.357-2.912.966 0 1.833.54 2.046 1.548h.88Zm3.526 5.114c1.477 0 2.471-1.123 2.471-2.813 0-1.704-.994-2.827-2.471-2.827s-2.472 1.123-2.472 2.827c0 1.69.995 2.813 2.472 2.813Zm0-.753c-1.122 0-1.634-.966-1.634-2.06s.512-2.074 1.634-2.074c1.122 0 1.634.98 1.634 2.074 0 1.094-.512 2.06-1.634 2.06Zm4.151-4.816h-.966l1.733 2.728L23.252 14h.966l1.307-2.117L26.832 14h.966l-1.762-2.727 1.762-2.728h-.966l-1.307 2.23-1.307-2.23Zm4.776 7.5h.838v-2.883h.07c.185.298.54.952 1.592.952 1.363 0 2.315-1.094 2.315-2.827 0-1.719-.952-2.813-2.33-2.813-1.065 0-1.392.654-1.576.938h-.1v-.867h-.81v7.5Zm.823-4.772c0-1.222.54-2.046 1.563-2.046 1.065 0 1.59.895 1.59 2.046 0 1.165-.539 2.088-1.59 2.088-1.009 0-1.563-.853-1.563-2.088Zm6.876 2.855c.951 0 1.448-.511 1.619-.867h.042V14h.839v-3.594c0-1.733-1.322-1.932-2.018-1.932-.823 0-1.76.285-2.187 1.279l.795.284c.185-.398.622-.824 1.42-.824.771 0 1.151.408 1.151 1.108v.028c0 .405-.411.37-1.406.498-1.012.131-2.116.355-2.116 1.605 0 1.065.824 1.676 1.86 1.676Zm.127-.753c-.667 0-1.15-.298-1.15-.88 0-.64.582-.839 1.236-.924.355-.043 1.306-.142 1.448-.313v.768c0 .681-.54 1.349-1.534 1.349Zm4.74-4.83h-.838V14h.838v-2.33h2.614V14h.838V8.545h-.838v2.344H41.56V8.545Zm5.82 4.22v-4.22h-.838V14h.98l2.614-4.219V14h.838V8.545h-.966l-2.628 4.22Zm4.387-3.438h1.804V14h.838V9.327h1.79v-.782h-4.432v.782Zm6.492 1.193V8.545h-.838V14h2.287c1.279 0 1.975-.781 1.975-1.761 0-.995-.696-1.72-1.975-1.72H58.26Zm0 .781h1.45c.663 0 1.136.405 1.136.98 0 .55-.473.938-1.137.938H58.26V11.3Z" fill="#fff"/></svg>